<?xml version="1.0" standalone="no"?>
<!DOCTYPE svg PUBLIC "-//W3C//DTD SVG 1.1//EN"
  "http://www.w3.org/Graphics/SVG/1.1/DTD/svg11.dtd">
<svg width="20px" height="20px" 
     viewBox="0 0 400 400" version="1.1"
     xmlns="http://www.w3.org/2000/svg"
     xmlns:xlink="http://www.w3.org/1999/xlink" >
<title>Train symbol - Front view - Driver on left</title>
<desc>Train symbol - Front view - Driver on left</desc>
<desc>Made by user AnyFile of Wikimedia Commons on 2007-Oct-28.
Licenced in Public Domain </desc>
<rect x="5" y="30" width="390" height="280" rx="20" ry="20"  fill="black"
   stroke="black" stroke-width="1" />
<rect x="140" y="5" width="120" height="25" fill="black"
   stroke="black" stroke-width="1" />
<rect x="100" y="310" width="200" height="30"  fill="black"
   stroke="black" stroke-width="1" />
<rect x="120" y="340" width="20" height="30"  fill="black"
   stroke="black" stroke-width="1" />
<rect x="260" y="340" width="20" height="30"  fill="black"
   stroke="black" stroke-width="1" />
<rect x="60" y="370" width="280" height="25"  fill="black"
   stroke="black" stroke-width="1" />
<defs>
	<g id="window">
	 <desc>a white rectangualar to represent the window></desc>
	 <rect x="20" y="35" width="130" height="145" fill="white"
	    stroke="white" stroke-width="1" />
	</g>
	<g id="fanal">
	 <desc>a white circle to represent the fanal></desc>
	 <circle cx="152" cy="240" r="23" fill="white"
	    stroke="white" stroke-width="1" />
	</g>
	<symbol id="driver" viewBox="-40 0 80 90">
	  <desc>rapresentation of the driver, made of two half</desc>
	  <g id="driver_half_right">
	       <path fill="black" stroke="black" stroke-width="1"
	         d="M0,90 h26 v-20 h4 v20 h10 v-30 q 0,-10 -15,-10 h-20 v-10
		    c3,0 10,-7 10,-15 s-7,-15 -10,-15  h7 v-6 h-4
		    q 0,-4 -6,-4  h-2 z" />
	  </g>
	  <use id="driver_half_left"  xlink:href="#driver_half_right"
	     transform="translate(0,0) scale(-1,1)" />
	</symbol>

</defs>
<use xlink:href="#window" transform="translate(200,30)" />
<use xlink:href="#window" transform="translate(200,30) scale(-1,1)" />
<use xlink:href="#fanal" transform="translate(200,30)" />
<use xlink:href="#fanal" transform="translate(200,30) scale(-1,1)" />
<use id="driver_left" xlink:href="#driver" width="80" height="90"
           transform="translate(200,30) translate(45,90)" />
</svg>
